/usr/bin/start-video-rec.sh: line 93: kill: (640) - No such process
ffmpeg version 2.8.17-0ubuntu0.1 Copyright (c) 2000-2020 the FFmpeg developers
  built with gcc 5.4.0 (Ubuntu 5.4.0-6ubuntu1~16.04.12) 20160609
  configuration: --prefix=/usr --extra-version=0ubuntu0.1 --build-suffix=-ffmpeg --toolchain=hardened --libdir=/usr/lib/x86_64-linux-gnu --incdir=/usr/include/x86_64-linux-gnu --cc=cc --cxx=g++ --enable-gpl --enable-shared --disable-stripping --disable-decoder=libopenjpeg --disable-decoder=libschroedinger --enable-avresample --enable-avisynth --enable-gnutls --enable-ladspa --enable-libass --enable-libbluray --enable-libbs2b --enable-libcaca --enable-libcdio --enable-libflite --enable-libfontconfig --enable-libfreetype --enable-libfribidi --enable-libgme --enable-libgsm --enable-libmodplug --enable-libmp3lame --enable-libopenjpeg --enable-libopus --enable-libpulse --enable-librtmp --enable-libschroedinger --enable-libshine --enable-libsnappy --enable-libsoxr --enable-libspeex --enable-libssh --enable-libtheora --enable-libtwolame --enable-libvorbis --enable-libvpx --enable-libwavpack --enable-libwebp --enable-libx265 --enable-libxvid --enable-libzvbi --enable-openal --enable-opengl --enable-x11grab --enable-libdc1394 --enable-libiec61883 --enable-libzmq --enable-frei0r --enable-libx264 --enable-libopencv
  libavutil      54. 31.100 / 54. 31.100
  libavcodec     56. 60.100 / 56. 60.100
  libavformat    56. 40.101 / 56. 40.101
  libavdevice    56.  4.100 / 56.  4.100
  libavfilter     5. 40.101 /  5. 40.101
  libavresample   2.  1.  0 /  2.  1.  0
  libswscale      3.  1.101 /  3.  1.101
  libswresample   1.  2.101 /  1.  2.101
  libpostproc    53.  3.100 / 53.  3.100
Input #0, matroska,webm, from '/home/seluser/videos/vid_chrome_or_firefox_40000.mkv':
  Metadata:
    ENCODER         : Lavf56.40.101
  Duration: 00:01:41.80, start: 0.000000, bitrate: 30 kb/s
    Stream #0:0: Video: h264 (Constrained Baseline), yuv420p, 1366x768, SAR 1:1 DAR 683:384, 10 fps, 10 tbr, 1k tbn, 20 tbc (default)
    Metadata:
      ENCODER         : Lavc56.60.100 libx264
      DURATION        : 00:01:41.800000000
[libx264 @ 0x202b660] using SAR=1/1
[libx264 @ 0x202b660] using cpu capabilities: MMX2 SSE2Fast SSSE3 SSE4.2 AVX FMA3 AVX2 LZCNT BMI2
[libx264 @ 0x202b660] profile Constrained Baseline, level 3.2
[libx264 @ 0x202b660] 264 - core 148 r2643 5c65704 - H.264/MPEG-4 AVC codec - Copyleft 2003-2015 - http://www.videolan.org/x264.html - options: cabac=0 ref=1 deblock=0:0:0 analyse=0:0 me=dia subme=0 psy=1 psy_rd=1.00:0.00 mixed_ref=0 me_range=16 chroma_me=1 trellis=0 8x8dct=0 cqm=0 deadzone=21,11 fast_pskip=1 chroma_qp_offset=0 threads=3 lookahead_threads=1 sliced_threads=0 nr=0 decimate=1 interlaced=0 bluray_compat=0 constrained_intra=0 bframes=0 weightp=0 keyint=250 keyint_min=10 scenecut=0 intra_refresh=0 rc=crf mbtree=0 crf=23.0 qcomp=0.60 qpmin=0 qpmax=69 qpstep=4 ip_ratio=1.40 aq=0
Output #0, mp4, to '/home/seluser/videos/vid_chrome_or_firefox_40000.mp4':
  Metadata:
    encoder         : Lavf56.40.101
    Stream #0:0: Video: h264 (libx264) ([33][0][0][0] / 0x0021), yuv420p, 1366x768 [SAR 1:1 DAR 683:384], q=-1--1, 10 fps, 10240 tbn, 10 tbc (default)
    Metadata:
      DURATION        : 00:01:41.800000000
      encoder         : Lavc56.60.100 libx264
Stream mapping:
  Stream #0:0 -> #0:0 (h264 (native) -> h264 (libx264))
Press [q] to stop, [?] for help
frame=   28 fps=0.0 q=9.0 size=      29kB time=00:00:02.40 bitrate=  98.1kbits/s    
frame=   87 fps= 85 q=9.0 size=      92kB time=00:00:08.30 bitrate=  90.4kbits/s    
frame=  128 fps= 84 q=9.0 size=      93kB time=00:00:12.40 bitrate=  61.2kbits/s    
frame=  170 fps= 84 q=9.0 size=      94kB time=00:00:16.60 bitrate=  46.3kbits/s    
frame=  207 fps= 82 q=9.0 size=      95kB time=00:00:20.30 bitrate=  38.3kbits/s    
frame=  265 fps= 87 q=9.0 size=     159kB time=00:00:26.10 bitrate=  49.9kbits/s    
frame=  335 fps= 94 q=9.0 size=     161kB time=00:00:33.10 bitrate=  39.8kbits/s    
frame=  401 fps= 99 q=9.0 size=     162kB time=00:00:39.70 bitrate=  33.5kbits/s    
frame=  457 fps=100 q=9.0 size=     164kB time=00:00:45.30 bitrate=  29.6kbits/s    
frame=  521 fps=102 q=9.0 size=     228kB time=00:00:51.70 bitrate=  36.1kbits/s    
frame=  585 fps=104 q=9.0 size=     229kB time=00:00:58.10 bitrate=  32.3kbits/s    
frame=  661 fps=108 q=9.0 size=     231kB time=00:01:05.70 bitrate=  28.8kbits/s    
frame=  740 fps=112 q=9.0 size=     232kB time=00:01:13.60 bitrate=  25.9kbits/s    
frame=  816 fps=115 q=9.0 size=     297kB time=00:01:21.20 bitrate=  29.9kbits/s    
frame=  856 fps=112 q=9.0 size=     298kB time=00:01:25.20 bitrate=  28.6kbits/s    
frame=  918 fps=113 q=9.0 size=     299kB time=00:01:31.40 bitrate=  26.8kbits/s    
frame=  964 fps=111 q=9.0 size=     300kB time=00:01:36.00 bitrate=  25.6kbits/s    
frame= 1014 fps=111 q=9.0 size=     368kB time=00:01:41.00 bitrate=  29.8kbits/s    
frame= 1018 fps=110 q=-1.0 Lsize=     373kB time=00:01:41.80 bitrate=  30.0kbits/s    
video:368kB audio:0kB subtitle:0kB other streams:0kB global headers:0kB muxing overhead: 1.301745%
[libx264 @ 0x202b660] frame I:5     Avg QP: 8.80  size: 55081
[libx264 @ 0x202b660] frame P:1013  Avg QP: 9.13  size:   100
[libx264 @ 0x202b660] mb I  I16..4: 100.0%  0.0%  0.0%
[libx264 @ 0x202b660] mb P  I16..4:  0.2%  0.0%  0.0%  P16..4:  0.1%  0.0%  0.0%  0.0%  0.0%    skip:99.7%
[libx264 @ 0x202b660] coded y,uvDC,uvAC intra: 8.0% 5.4% 5.2% inter: 0.0% 0.0% 0.0%
[libx264 @ 0x202b660] i16 v,h,dc,p: 85% 13%  1%  0%
[libx264 @ 0x202b660] i8c dc,h,v,p: 90%  9%  1%  0%
[libx264 @ 0x202b660] kb/s:29.56
